<svg width="147" height="177" viewBox="0 0 147 177" fill="none" xmlns="http://www.w3.org/2000/svg">
<path d="M143 153.775C144.651 153.756 146 155.089 146 156.74C146 158.391 144.651 159.724 143 159.705L1.28563 158.041C0.573166 158.033 0 157.453 0 156.74C0 156.028 0.573166 155.448 1.28563 155.439L143 153.775Z" fill="#222222"/>
<mask id="mask0_1_320" style="mask-type:alpha" maskUnits="userSpaceOnUse" x="0" y="153" width="146" height="7">
<path d="M143 153.775C144.651 153.756 146 155.089 146 156.74C146 158.391 144.651 159.724 143 159.705L1.28563 158.041C0.573166 158.033 0 157.453 0 156.74C0 156.028 0.573166 155.448 1.28563 155.439L143 153.775Z" fill="#D0D0D0"/>
</mask>
<g mask="url(#mask0_1_320)">
<rect width="15.215" height="1.93254" transform="matrix(-0.558661 0.829396 -0.896258 -0.443533 143 151.169)" fill="#575757"/>
<rect width="15.215" height="1.93254" transform="matrix(-0.558661 0.829396 -0.896258 -0.443533 111 151.169)" fill="#575757"/>
<rect width="15.215" height="1.93254" transform="matrix(-0.558661 0.829396 -0.896258 -0.443533 127 151.169)" fill="#575757"/>
<rect width="15.215" height="1.93254" transform="matrix(-0.558661 0.829396 -0.896258 -0.443533 95 151.169)" fill="#575757"/>
<rect width="15.215" height="1.93254" transform="matrix(-0.558661 0.829396 -0.896258 -0.443533 135 151.169)" fill="#575757"/>
<rect width="15.215" height="1.93254" transform="matrix(-0.558661 0.829396 -0.896258 -0.443533 103 151.169)" fill="#575757"/>
<rect width="15.215" height="1.93254" transform="matrix(-0.558661 0.829396 -0.896258 -0.443533 119 151.169)" fill="#575757"/>
<rect width="15.215" height="1.93254" transform="matrix(-0.558661 0.829396 -0.896258 -0.443533 87 151.169)" fill="#575757"/>
<rect width="15.215" height="1.93254" transform="matrix(-0.558661 0.829396 -0.896258 -0.443533 139 151.169)" fill="#575757"/>
<rect width="15.215" height="1.93254" transform="matrix(-0.558661 0.829396 -0.896258 -0.443533 107 151.169)" fill="#575757"/>
<rect width="15.215" height="1.93254" transform="matrix(-0.558661 0.829396 -0.896258 -0.443533 123 151.169)" fill="#575757"/>
<rect width="15.215" height="1.93254" transform="matrix(-0.558661 0.829396 -0.896258 -0.443533 91 151.169)" fill="#575757"/>
<rect width="15.215" height="1.93254" transform="matrix(-0.558661 0.829396 -0.896258 -0.443533 131 151.169)" fill="#575757"/>
<rect width="15.215" height="1.93254" transform="matrix(-0.558661 0.829396 -0.896258 -0.443533 99 151.169)" fill="#575757"/>
<rect width="15.215" height="1.93254" transform="matrix(-0.558661 0.829396 -0.896258 -0.443533 115 151.169)" fill="#575757"/>
<rect width="15.215" height="1.93254" transform="matrix(-0.558661 0.829396 -0.896258 -0.443533 83 151.169)" fill="#575757"/>
<rect width="15.215" height="1.93254" transform="matrix(-0.558661 -0.829396 -0.896258 0.443533 143 162.931)" fill="#898989"/>
<rect width="15.215" height="1.93254" transform="matrix(-0.558661 -0.829396 -0.896258 0.443533 111 162.931)" fill="#898989"/>
<rect width="15.215" height="1.93254" transform="matrix(-0.558661 -0.829396 -0.896258 0.443533 127 162.931)" fill="#898989"/>
<rect width="15.215" height="1.93254" transform="matrix(-0.558661 -0.829396 -0.896258 0.443533 95.0001 162.931)" fill="#898989"/>
<rect width="15.215" height="1.93254" transform="matrix(-0.558661 -0.829396 -0.896258 0.443533 135 162.931)" fill="#898989"/>
<rect width="15.215" height="1.93254" transform="matrix(-0.558661 -0.829396 -0.896258 0.443533 103 162.931)" fill="#898989"/>
<rect width="15.215" height="1.93254" transform="matrix(-0.558661 -0.829396 -0.896258 0.443533 119 162.931)" fill="#898989"/>
<rect width="15.215" height="1.93254" transform="matrix(-0.558661 -0.829396 -0.896258 0.443533 87.0001 162.931)" fill="#898989"/>
<rect width="15.215" height="1.93254" transform="matrix(-0.558661 -0.829396 -0.896258 0.443533 139 162.931)" fill="#898989"/>
<rect width="15.215" height="1.93254" transform="matrix(-0.558661 -0.829396 -0.896258 0.443533 107 162.931)" fill="#898989"/>
<rect width="15.215" height="1.93254" transform="matrix(-0.558661 -0.829396 -0.896258 0.443533 123 162.931)" fill="#898989"/>
<rect width="15.215" height="1.93254" transform="matrix(-0.558661 -0.829396 -0.896258 0.443533 91 162.931)" fill="#898989"/>
<rect width="15.215" height="1.93254" transform="matrix(-0.558661 -0.829396 -0.896258 0.443533 131 162.931)" fill="#898989"/>
<rect width="15.215" height="1.93254" transform="matrix(-0.558661 -0.829396 -0.896258 0.443533 99 162.931)" fill="#898989"/>
<rect width="15.215" height="1.93254" transform="matrix(-0.558661 -0.829396 -0.896258 0.443533 115 162.931)" fill="#898989"/>
<rect width="15.215" height="1.93254" transform="matrix(-0.558661 -0.829396 -0.896258 0.443533 83 162.931)" fill="#898989"/>
</g>
<path d="M143.565 170.01C145.214 170.106 146.466 171.53 146.351 173.177C146.236 174.824 144.797 176.06 143.152 175.925L1.89849 164.38C1.18835 164.322 0.65703 163.703 0.706733 162.993C0.756435 162.282 1.36866 161.743 2.07997 161.785L143.565 170.01Z" fill="#222222"/>
<mask id="mask1_1_320" style="mask-type:alpha" maskUnits="userSpaceOnUse" x="0" y="161" width="147" height="15">
<path d="M143.565 170.01C145.214 170.106 146.466 171.53 146.351 173.177C146.236 174.824 144.797 176.06 143.152 175.925L1.89849 164.38C1.18835 164.322 0.65703 163.703 0.706733 162.993C0.756435 162.282 1.36866 161.743 2.07997 161.785L143.565 170.01Z" fill="#D0D0D0"/>
</mask>
<g mask="url(#mask1_1_320)">
<rect width="15.215" height="1.93254" transform="matrix(-0.615156 0.788406 -0.863136 -0.504972 143.747 167.41)" fill="#575757"/>
<rect width="15.215" height="1.93254" transform="matrix(-0.615156 0.788406 -0.863136 -0.504972 111.825 165.178)" fill="#575757"/>
<rect width="15.215" height="1.93254" transform="matrix(-0.615156 0.788406 -0.863136 -0.504972 127.786 166.294)" fill="#575757"/>
<rect width="15.215" height="1.93254" transform="matrix(-0.615156 0.788406 -0.863136 -0.504972 95.8639 164.062)" fill="#575757"/>
<rect width="15.215" height="1.93254" transform="matrix(-0.615156 0.788406 -0.863136 -0.504972 135.766 166.852)" fill="#575757"/>
<rect width="15.215" height="1.93254" transform="matrix(-0.615156 0.788406 -0.863136 -0.504972 103.844 164.62)" fill="#575757"/>
<rect width="15.215" height="1.93254" transform="matrix(-0.615156 0.788406 -0.863136 -0.504972 119.805 165.736)" fill="#575757"/>
<rect width="15.215" height="1.93254" transform="matrix(-0.615156 0.788406 -0.863136 -0.504972 87.8834 163.503)" fill="#575757"/>
<rect width="15.215" height="1.93254" transform="matrix(-0.615156 0.788406 -0.863136 -0.504972 139.757 167.131)" fill="#575757"/>
<rect width="15.215" height="1.93254" transform="matrix(-0.615156 0.788406 -0.863136 -0.504972 107.835 164.899)" fill="#575757"/>
<rect width="15.215" height="1.93254" transform="matrix(-0.615156 0.788406 -0.863136 -0.504972 123.796 166.015)" fill="#575757"/>
<rect width="15.215" height="1.93254" transform="matrix(-0.615156 0.788406 -0.863136 -0.504972 91.8738 163.783)" fill="#575757"/>
<rect width="15.215" height="1.93254" transform="matrix(-0.615156 0.788406 -0.863136 -0.504972 131.776 166.573)" fill="#575757"/>
<rect width="15.215" height="1.93254" transform="matrix(-0.615156 0.788406 -0.863136 -0.504972 99.8543 164.341)" fill="#575757"/>
<rect width="15.215" height="1.93254" transform="matrix(-0.615156 0.788406 -0.863136 -0.504972 115.815 165.457)" fill="#575757"/>
<rect width="15.215" height="1.93254" transform="matrix(-0.615156 0.788406 -0.863136 -0.504972 83.8933 163.225)" fill="#575757"/>
<rect width="15.215" height="1.93254" transform="matrix(-0.499444 -0.866346 -0.925014 0.379933 142.926 179.143)" fill="#898989"/>
<rect width="15.215" height="1.93254" transform="matrix(-0.499444 -0.866346 -0.925014 0.379933 111.005 176.911)" fill="#898989"/>
<rect width="15.215" height="1.93254" transform="matrix(-0.499444 -0.866346 -0.925014 0.379933 126.965 178.027)" fill="#898989"/>
<rect width="15.215" height="1.93254" transform="matrix(-0.499444 -0.866346 -0.925014 0.379933 95.0435 175.795)" fill="#898989"/>
<rect width="15.215" height="1.93254" transform="matrix(-0.499444 -0.866346 -0.925014 0.379933 134.946 178.585)" fill="#898989"/>
<rect width="15.215" height="1.93254" transform="matrix(-0.499444 -0.866346 -0.925014 0.379933 103.024 176.353)" fill="#898989"/>
<rect width="15.215" height="1.93254" transform="matrix(-0.499444 -0.866346 -0.925014 0.379933 118.985 177.469)" fill="#898989"/>
<rect width="15.215" height="1.93254" transform="matrix(-0.499444 -0.866346 -0.925014 0.379933 87.063 175.237)" fill="#898989"/>
<rect width="15.215" height="1.93254" transform="matrix(-0.499444 -0.866346 -0.925014 0.379933 138.936 178.864)" fill="#898989"/>
<rect width="15.215" height="1.93254" transform="matrix(-0.499444 -0.866346 -0.925014 0.379933 107.014 176.632)" fill="#898989"/>
<rect width="15.215" height="1.93254" transform="matrix(-0.499444 -0.866346 -0.925014 0.379933 122.975 177.748)" fill="#898989"/>
<rect width="15.215" height="1.93254" transform="matrix(-0.499444 -0.866346 -0.925014 0.379933 91.0532 175.516)" fill="#898989"/>
<rect width="15.215" height="1.93254" transform="matrix(-0.499444 -0.866346 -0.925014 0.379933 130.956 178.306)" fill="#898989"/>
<rect width="15.215" height="1.93254" transform="matrix(-0.499444 -0.866346 -0.925014 0.379933 99.0337 176.074)" fill="#898989"/>
<rect width="15.215" height="1.93254" transform="matrix(-0.499444 -0.866346 -0.925014 0.379933 114.995 177.19)" fill="#898989"/>
<rect width="15.215" height="1.93254" transform="matrix(-0.499444 -0.866346 -0.925014 0.379933 83.0727 174.958)" fill="#898989"/>
</g>
<rect x="0.497467" width="146" height="146" rx="2" fill="#DF4A4A"/>
<path d="M36.1375 65V48.44C33.2095 43.64 30.5455 38.96 28.1455 34.4C25.7935 29.84 23.7295 25.184 21.9535 20.432H28.5775C29.9695 24.464 31.5535 28.328 33.3295 32.024C35.1535 35.672 37.0975 39.44 39.1615 43.328C41.3695 39.248 43.3135 35.384 44.9935 31.736C46.7215 28.04 48.2815 24.272 49.6735 20.432H56.1535C54.3295 25.136 52.2415 29.72 49.8895 34.184C47.5375 38.648 44.9215 43.352 42.0415 48.296V65H36.1375ZM103.097 65V48.44C100.169 43.64 97.5055 38.96 95.1055 34.4C92.7535 29.84 90.6895 25.184 88.9135 20.432H95.5375C96.9295 24.464 98.5135 28.328 100.289 32.024C102.113 35.672 104.057 39.44 106.121 43.328C108.329 39.248 110.273 35.384 111.953 31.736C113.681 28.04 115.241 24.272 116.633 20.432H123.113C121.289 25.136 119.201 29.72 116.849 34.184C114.497 38.648 111.881 43.352 109.001 48.296V65H103.097ZM47.8735 104.04H53.7775V124.92C52.8655 125.256 51.4015 125.664 49.3855 126.144C47.3695 126.672 44.9935 126.936 42.2575 126.936C39.5695 126.936 37.1215 126.432 34.9135 125.424C32.7055 124.368 30.8095 122.856 29.2255 120.888C27.6895 118.92 26.4895 116.496 25.6255 113.616C24.7615 110.688 24.3295 107.376 24.3295 103.68C24.3295 99.936 24.8095 96.624 25.7695 93.744C26.7295 90.864 28.0255 88.44 29.6575 86.472C31.3375 84.504 33.2815 83.016 35.4895 82.008C37.6975 80.952 40.0735 80.424 42.6175 80.424C44.2495 80.424 45.6895 80.544 46.9375 80.784C48.1855 81.024 49.2415 81.312 50.1055 81.648C51.0175 81.984 51.7615 82.344 52.3375 82.728C52.9135 83.064 53.3455 83.328 53.6335 83.52L51.6895 88.488C50.5855 87.624 49.2655 86.928 47.7295 86.4C46.2415 85.824 44.6575 85.536 42.9775 85.536C41.1535 85.536 39.4495 85.968 37.8655 86.832C36.3295 87.696 35.0095 88.92 33.9055 90.504C32.8015 92.088 31.9375 94.008 31.3135 96.264C30.6895 98.472 30.3775 100.944 30.3775 103.68C30.3775 106.368 30.6415 108.816 31.1695 111.024C31.7455 113.232 32.5615 115.128 33.6175 116.712C34.6735 118.296 35.9695 119.544 37.5055 120.456C39.0895 121.32 40.8895 121.752 42.9055 121.752C44.2975 121.752 45.3775 121.656 46.1455 121.464C46.9135 121.272 47.4895 121.08 47.8735 120.888V104.04ZM104.825 121.824C107.849 121.824 110.153 121.248 111.737 120.096C113.321 118.944 114.113 117.216 114.113 114.912C114.113 113.52 113.825 112.344 113.249 111.384C112.673 110.376 111.905 109.512 110.945 108.792C109.985 108.024 108.905 107.376 107.705 106.848C106.505 106.272 105.281 105.744 104.033 105.264C102.593 104.688 101.201 104.04 99.8575 103.32C98.5615 102.6 97.3855 101.76 96.3295 100.8C95.3215 99.84 94.5055 98.712 93.8815 97.416C93.3055 96.12 93.0175 94.584 93.0175 92.808C93.0175 88.92 94.2415 85.896 96.6895 83.736C99.1375 81.528 102.545 80.424 106.913 80.424C108.113 80.424 109.289 80.52 110.441 80.712C111.641 80.856 112.745 81.048 113.753 81.288C114.761 81.528 115.649 81.816 116.417 82.152C117.233 82.488 117.881 82.824 118.361 83.16L116.489 88.128C115.529 87.552 114.209 86.976 112.529 86.4C110.849 85.824 108.977 85.536 106.913 85.536C104.753 85.536 102.881 86.088 101.297 87.192C99.7135 88.248 98.9215 89.856 98.9215 92.016C98.9215 93.264 99.1375 94.32 99.5695 95.184C100.049 96.048 100.673 96.816 101.441 97.488C102.257 98.112 103.193 98.688 104.249 99.216C105.305 99.744 106.457 100.272 107.705 100.8C109.529 101.568 111.185 102.336 112.673 103.104C114.209 103.872 115.505 104.784 116.561 105.84C117.665 106.896 118.505 108.144 119.081 109.584C119.705 111.024 120.017 112.776 120.017 114.84C120.017 118.728 118.697 121.728 116.057 123.84C113.465 125.904 109.721 126.936 104.825 126.936C103.241 126.936 101.753 126.816 100.361 126.576C98.9695 126.384 97.7215 126.12 96.6175 125.784C95.5615 125.448 94.6255 125.112 93.8095 124.776C92.9935 124.44 92.3695 124.128 91.9375 123.84L93.7375 118.944C94.6975 119.472 96.1135 120.096 97.9855 120.816C99.8575 121.488 102.137 121.824 104.825 121.824Z" fill="white"/>
</svg>
